# This file uses centimeters as units for non-parametric coordinates.

mtllib box geuvt.mtl
g default
v -2.112400 3.045846 -2.760425
v -2.108661 3.045846 -2.759953
v -2.109376 3.042365 -2.758700
v -2.111101 3.040923 -2.755676
v -2.114125 3.042365 -2.757401
v -2.115378 3.045846 -2.758115
v -1.296493 3.048106 -2.289680
v -1.297748 3.046029 -2.287479
v -1.297612 3.042434 -2.290571
v -1.300025 3.040923 -2.293227
v -1.298291 3.042306 -2.296166
v -1.297547 3.045647 -2.297369
v -1.295337 3.047898 -2.294481
v -1.295974 3.053121 -2.290591
v -2.188865 3.045846 -2.626348
v -2.188393 3.045846 -2.630087
v -2.187140 3.042365 -2.629372
v -2.184116 3.040923 -2.627647
v -2.185841 3.042365 -2.624623
v -2.186555 3.045846 -2.623370
v -1.368287 3.048106 -2.163794
v -1.368807 3.053121 -2.162883
v -1.371856 3.047966 -2.160372
v -1.375528 3.045747 -2.160835
v -1.374799 3.042335 -2.162013
v -1.373101 3.040923 -2.164893
v -1.369629 3.042427 -2.164236
v -1.367032 3.046029 -2.165994
v -2.187141 3.668413 -2.629372
v -2.188393 3.664932 -2.630087
v -2.188865 3.664932 -2.626348
v -2.186555 3.664932 -2.623370
v -2.185841 3.668413 -2.624623
v -2.184116 3.669856 -2.627647
v -1.368287 3.662672 -2.163794
v -1.367032 3.664749 -2.165994
v -1.369624 3.668344 -2.164302
v -1.373139 3.669856 -2.165028
v -1.374785 3.668472 -2.162039
v -1.375441 3.665131 -2.160786
v -1.371831 3.662880 -2.160354
v -1.368807 3.657658 -2.162883
v -2.112400 3.664932 -2.760425
v -2.115378 3.664932 -2.758115
v -2.114125 3.668413 -2.757401
v -2.111101 3.669856 -2.755676
v -2.109376 3.668413 -2.758700
v -2.108661 3.664932 -2.759953
v -1.296493 3.662672 -2.289680
v -1.295974 3.657658 -2.290591
v -1.295365 3.662811 -2.294494
v -1.297634 3.665031 -2.297418
v -1.298276 3.668443 -2.296191
v -1.299891 3.669856 -2.293264
v -1.297557 3.668352 -2.290609
v -1.297748 3.664749 -2.287479
v -1.308459 3.642810 -2.278450
v -1.307788 3.639372 -2.279686
v -1.304068 3.640929 -2.279267
v -1.301141 3.644820 -2.281530
v -1.301930 3.647991 -2.280147
v -1.303835 3.649304 -2.276807
v -1.306535 3.645699 -2.274909
v -1.310113 3.644233 -2.275487
v -1.308459 3.067969 -2.278450
v -1.310113 3.066545 -2.275487
v -1.306533 3.065090 -2.274913
v -1.303833 3.061503 -2.276810
v -1.301908 3.062806 -2.280185
v -1.301111 3.065951 -2.281583
v -1.304055 3.069854 -2.279289
v -1.307788 3.071405 -2.279686
v -1.364714 3.642810 -2.179809
v -1.363006 3.644233 -2.182743
v -1.360689 3.645687 -2.179953
v -1.360947 3.649275 -2.176664
v -1.362872 3.647971 -2.173289
v -1.363669 3.644827 -2.171891
v -1.363194 3.640925 -2.175592
v -1.365437 3.639372 -2.178604
v -1.364714 3.067969 -2.179809
v -1.365437 3.071405 -2.178604
v -1.363182 3.069850 -2.175614
v -1.363640 3.065959 -2.171943
v -1.362850 3.062787 -2.173327
v -1.360946 3.061473 -2.176667
v -1.360687 3.065079 -2.179957
v -1.363006 3.066545 -2.182743
v -2.015729 3.642791 -2.677762
v -2.016982 3.639309 -2.678476
v -2.014004 3.639309 -2.680786
v -2.010266 3.639309 -2.680314
v -2.010980 3.642791 -2.679061
v -2.012705 3.644233 -2.676037
v -2.015729 3.067987 -2.677762
v -2.012705 3.066545 -2.676037
v -2.010980 3.067987 -2.679061
v -2.010266 3.071468 -2.680314
v -2.014004 3.071468 -2.680786
v -2.016982 3.071468 -2.678476
v -2.070223 3.639309 -2.582209
v -2.069751 3.639309 -2.585948
v -2.068498 3.642791 -2.585233
v -2.065474 3.644233 -2.583508
v -2.067199 3.642791 -2.580484
v -2.067914 3.639309 -2.579231
v -2.068498 3.067987 -2.585233
v -2.069751 3.071468 -2.585948
v -2.070223 3.071468 -2.582209
v -2.067914 3.071468 -2.579231
v -2.067199 3.067987 -2.580484
v -2.065474 3.066545 -2.583508
v -2.112161 3.043005 -2.759552
v -1.296039 3.044003 -2.293294
v -2.187992 3.043005 -2.626587
v -1.371174 3.044019 -2.161548
v -2.187992 3.667773 -2.626587
v -1.371166 3.666776 -2.161563
v -2.112161 3.667774 -2.759552
v -1.296030 3.666759 -2.293308
v -1.304773 3.644279 -2.278009
v -1.304762 3.066510 -2.278026
v -1.362467 3.644267 -2.176844
v -1.362458 3.066499 -2.176862
v -2.013766 3.642151 -2.679913
v -2.013766 3.068627 -2.679913
v -2.069350 3.642151 -2.582447
v -2.069350 3.068627 -2.582447
vt 0.423184 0.428002
vt 0.424868 0.426285
vt 0.422701 0.205546
vt 0.204936 0.429703
vt 0.459448 0.425713
vt 0.456417 0.206934
vt 0.455492 0.205182
vt 0.682501 0.425997
vt 0.427512 0.572533
vt 0.463752 0.571997
vt 0.682000 0.570296
vt 0.683772 0.568587
vt 0.464235 0.794454
vt 0.206227 0.575665
vt 0.427487 0.574286
vt 0.430519 0.793066
vt 0.431445 0.794818
vt 0.200738 0.434316
vt 0.200244 0.569871
vt 0.434305 0.798429
vt 0.461448 0.798100
vt 0.198978 0.435593
vt 0.452632 0.201571
vt 0.426482 0.200112
vt 0.686198 0.565683
vt 0.684949 0.428872
vt 0.451598 0.199798
vt 0.437439 0.989745
vt 0.462395 0.989534
vt 0.010903 0.437138
vt 0.987056 0.077018
vt 0.449502 0.010255
vt 0.487585 0.079967
vt 0.488139 0.173662
vt 0.876033 0.562861
vt 0.877738 0.431083
vt 0.421836 0.207333
vt 0.461184 0.427388
vt 0.680708 0.424334
vt 0.462068 0.573715
vt 0.465100 0.792667
vt 0.425752 0.572612
vt 0.987611 0.170713
vt 0.424947 0.428030
vt 0.459423 0.427467
vt 0.461988 0.571970
vt 0.203163 0.431412
vt 0.204434 0.574001
vt 0.201987 0.571126
vt 0.425489 0.201899
vt 0.009197 0.568916
vt 0.435339 0.800202
vt 0.460454 0.799888
vt 0.687958 0.564405
vt 0.686691 0.430127
vt 0.424546 0.010465
vt 0.424066 0.428023
vt 0.423988 0.426371
vt 0.424912 0.427158
vt 0.422068 0.205110
vt 0.422094 0.206458
vt 0.204880 0.428854
vt 0.204082 0.430232
vt 0.460303 0.427434
vt 0.459431 0.426591
vt 0.461087 0.426509
vt 0.682683 0.424806
vt 0.681573 0.424844
vt 0.457266 0.206882
vt 0.456132 0.206079
vt 0.462023 0.572841
vt 0.462870 0.571976
vt 0.462948 0.573628
vt 0.464869 0.794889
vt 0.464842 0.793541
vt 0.682056 0.571144
vt 0.682853 0.569766
vt 0.426632 0.572566
vt 0.427505 0.573409
vt 0.425849 0.573491
vt 0.204252 0.575193
vt 0.205362 0.575155
vt 0.429671 0.793117
vt 0.430805 0.793921
vt 0.200164 0.570738
vt 0.201118 0.570248
vt 0.433381 0.798703
vt 0.435009 0.799332
vt 0.425621 0.200055
vt 0.426171 0.200984
vt 0.200393 0.433565
vt 0.199863 0.435207
vt 0.461316 0.799945
vt 0.460765 0.799015
vt 0.686542 0.566434
vt 0.687072 0.564792
vt 0.686771 0.429261
vt 0.685817 0.429751
vt 0.453556 0.201297
vt 0.451928 0.200668
vt 0.990369 0.076907
vt 0.008313 0.568932
vt 0.436556 0.989780
vt 0.424513 0.009583
vt 0.010853 0.436256
vt 0.487477 0.076654
vt 0.987719 0.174027
vt 0.462427 0.990416
vt 0.876082 0.563742
vt 0.484827 0.173774
vt 0.878622 0.431067
vt 0.450385 0.010220
vt 0.424121 0.427259
vt 0.421303 0.206265
vt 0.460225 0.426669
vt 0.681750 0.423885
vt 0.462814 0.572740
vt 0.465633 0.793735
vt 0.426710 0.573330
vt 0.205186 0.576114
vt 0.200885 0.571081
vt 0.425274 0.200773
vt 0.461662 0.799226
vt 0.686050 0.428917
vt 0.989807 0.074235
vt 0.423802 0.009734
vt 0.990391 0.173464
vt 0.485390 0.176446
vt 0.463278 0.989551
vt 0.462387 0.798356
vt 0.687315 0.565620
vt 0.688044 0.565271
vt 0.465963 0.792716
vt 0.683041 0.570711
vt 0.683966 0.569775
vt 0.463676 0.572878
vt 0.009149 0.569798
vt 0.201654 0.571889
vt 0.434120 0.799564
vt 0.434478 0.800278
vt 0.206168 0.576527
vt 0.430027 0.794132
vt 0.430820 0.795267
vt 0.426606 0.574226
vt 0.877786 0.430201
vt 0.685281 0.428110
vt 0.452816 0.200436
vt 0.452458 0.199722
vt 0.680767 0.423472
vt 0.456910 0.205868
vt 0.456117 0.204733
vt 0.460330 0.425774
vt 0.423663 0.010449
vt 0.424550 0.201644
vt 0.199620 0.434379
vt 0.198891 0.434727
vt 0.420974 0.207283
vt 0.203895 0.429287
vt 0.202970 0.430224
vt 0.423260 0.427122
vt 0.449517 0.009373
vt 0.450231 0.009509
vt 0.484277 0.079896
vt 0.484805 0.077217
vt 0.990919 0.170785
vt 0.463138 0.990265
vt 0.437423 0.990627
vt 0.436710 0.990491
vt 0.488070 0.176975
vt 0.878491 0.430363
vt 0.876916 0.562882
vt 0.876785 0.563584
vt 0.010150 0.436414
vt 0.010019 0.437116
vt 0.987126 0.073705
vt 0.008444 0.569636
vn 0.494071 -0.002286 -0.869419
vn 0.125488 -0.002147 -0.992093
vn 0.125489 0.002146 -0.992093
vn 0.494071 0.002263 -0.869419
vn -0.613007 -0.000844 -0.790077
vn -0.863893 -0.002301 -0.503670
vn -0.863893 0.002301 -0.503670
vn -0.613007 0.000844 -0.790077
vn 0.003300 -0.999955 -0.008869
vn 0.187406 -0.925314 -0.329656
vn 0.187834 -0.925295 -0.329466
vn 0.005213 -0.999955 -0.007872
vn 0.455713 -0.385892 -0.802130
vn 0.496417 -0.002285 -0.868081
vn 0.456937 -0.386069 -0.801349
vn -0.799661 -0.382061 -0.463219
vn -0.805830 -0.382062 -0.452402
vn -0.873349 -0.002301 -0.487089
vn -0.328655 -0.924143 -0.194794
vn -0.005999 -0.999954 0.007436
vn -0.334989 -0.924143 -0.183688
vn 0.842584 -0.244648 0.479792
vn 0.896092 -0.055983 0.440324
vn 0.847020 0.025504 0.530950
vn 0.868160 0.010702 0.496168
vn 0.926472 -0.000260 0.376365
vn 0.829402 0.000107 0.558653
vn 0.355975 -0.912788 0.200250
vn 0.353815 -0.912783 0.204062
vn -0.004181 -0.999955 0.008556
vn 0.832484 -0.336975 0.439795
vn 0.841935 -0.245004 0.480749
vn 0.802459 -0.335252 0.493625
vn 0.987382 -0.000527 0.158355
vn 0.987389 0.000562 0.158309
vn 0.926380 0.000270 0.376590
vn 0.792820 -0.002237 -0.609452
vn 0.496422 0.002276 -0.868078
vn 0.792777 0.002261 -0.609507
vn -0.992111 -0.000844 -0.125358
vn -0.992111 0.000844 -0.125358
vn -0.873349 0.002301 -0.487089
vn -0.789958 -0.002147 0.613157
vn -0.496734 -0.002263 0.867900
vn -0.496734 0.002286 0.867900
vn -0.789958 0.002147 0.613157
vn -0.459693 -0.379252 0.803026
vn -0.458412 -0.379399 0.803688
vn -0.494384 -0.002276 0.869241
vn -0.191632 -0.922549 0.334934
vn -0.191253 -0.922525 0.335215
vn 0.795776 -0.000270 0.605591
vn 0.834609 -0.054302 0.548159
vn 0.888324 0.025384 0.458515
vn 0.903122 0.000118 0.429384
vn 0.869062 0.010710 0.494587
vn -0.120879 -0.002261 0.992665
vn -0.120809 0.002237 0.992673
vn -0.494388 0.002285 0.869238
vn 0.638930 -0.000562 0.769265
vn 0.795630 0.000260 0.605783
vn 0.638965 0.000527 0.769235
vn -0.805869 0.381954 -0.452423
vn -0.799699 0.381954 -0.463242
vn -0.334971 0.924152 -0.183676
vn -0.005954 0.999955 0.007357
vn 0.003346 0.999954 -0.008950
vn -0.328637 0.924152 -0.194783
vn -0.188338 0.925290 0.329190
vn -0.187958 0.925271 0.329462
vn -0.004122 0.999955 0.008497
vn -0.458355 0.385875 0.800632
vn -0.457058 0.386051 0.801288
vn 0.841947 0.244634 0.480916
vn 0.835249 0.055989 0.547014
vn 0.888224 -0.025517 0.458701
vn 0.869063 -0.010706 0.494586
vn 0.903111 -0.000106 0.429406
vn 0.353633 0.912768 0.204448
vn 0.355815 0.912763 0.200648
vn 0.005236 0.999955 -0.007955
vn 0.802393 0.336933 0.492586
vn 0.842441 0.244989 0.479867
vn 0.833422 0.335250 0.439335
vn 0.457101 0.379220 -0.804519
vn 0.458323 0.379367 -0.803754
vn 0.190717 0.922536 -0.335492
vn 0.191152 0.922512 -0.335309
vn 0.896735 0.054318 0.439221
vn 0.846920 -0.025385 0.531114
vn 0.829386 -0.000118 0.558675
vn 0.868161 -0.010710 0.496167
vn -0.493549 -0.002500 0.869714
vn -0.456958 -0.380632 0.803933
vn -0.456680 -0.380436 0.804184
vn -0.493866 -0.002484 0.869534
vn -0.187141 -0.923049 0.336094
vn -0.003804 -0.999912 0.012734
vn -0.004906 -0.999914 0.012150
vn -0.190056 -0.923056 0.334434
vn 0.614183 -0.001297 0.789162
vn 0.614212 0.001254 0.789140
vn -0.108177 -0.001477 0.994131
vn -0.493553 0.002500 0.869712
vn -0.108166 0.001422 0.994132
vn 0.331728 -0.909220 0.251547
vn 0.385460 -0.909262 0.157046
vn 0.009026 -0.999912 -0.009757
vn 0.808964 -0.363511 0.461992
vn 0.809571 -0.363518 0.460922
vn -0.003802 0.999912 0.012736
vn -0.187136 0.923051 0.336091
vn -0.190056 0.923056 0.334434
vn -0.004906 0.999914 0.012150
vn -0.456941 0.380705 0.803909
vn -0.493866 0.002484 0.869534
vn -0.456666 0.380506 0.804159
vn 0.808915 0.363467 0.462113
vn 0.809526 0.363461 0.461047
vn 0.331494 0.909230 0.251816
vn 0.009024 0.999912 -0.009758
vn 0.385453 0.909187 0.157497
vn 0.193997 -0.923042 -0.332203
vn 0.191084 -0.923047 -0.333872
vn 0.007959 -0.999914 -0.010409
vn 0.459265 -0.380659 -0.802605
vn 0.497251 -0.002501 -0.867603
vn 0.496938 -0.002485 -0.867783
vn 0.459620 -0.380461 -0.802495
vn 0.800525 -0.001423 -0.599298
vn 0.800518 0.001477 -0.599307
vn 0.497255 0.002501 -0.867601
vn 0.991918 -0.001254 0.126871
vn 0.991923 0.001297 0.126835
vn 0.459249 0.380728 -0.802581
vn 0.459606 0.380531 -0.802470
vn 0.496938 0.002485 -0.867782
vn 0.193998 0.923040 -0.332208
vn 0.007959 0.999914 -0.010409
vn 0.191084 0.923047 -0.333872
vn 0.862104 -0.002501 0.506726
vn 0.798607 -0.381740 0.465296
vn 0.807083 -0.381741 0.450433
vn 0.875071 -0.002501 0.483988
vn 0.327235 -0.924236 0.196739
vn 0.335938 -0.924235 0.181480
vn -0.125572 -0.002339 0.992082
vn -0.125571 0.002339 0.992082
vn 0.613029 -0.000920 0.790060
vn 0.862104 0.002501 0.506726
vn 0.613029 0.000920 0.790060
vn 0.327240 0.924233 0.196742
vn 0.335944 0.924232 0.181483
vn 0.798587 0.381797 0.465284
vn 0.875071 0.002501 0.483988
vn 0.807063 0.381798 0.450422
vn 0.992110 -0.000920 0.125371
vn 0.992110 0.000920 0.125371
vn 0.789958 -0.002340 -0.613157
vn 0.789958 0.002340 -0.613156
vn -0.610127 -0.325318 -0.722436
vn 0.157294 -0.325308 -0.932434
vn -0.121431 -0.887898 -0.443724
vn 0.962958 -0.097353 0.251464
vn 0.609899 -0.790499 -0.055979
vn 0.609899 -0.790499 -0.055979
vn 0.842563 -0.313079 -0.438257
vn 0.842563 -0.313079 -0.438257
vn -0.722435 -0.325328 0.610123
vn -0.932409 -0.325357 -0.157340
vn -0.443702 -0.887917 0.121379
vn 0.702326 -0.094363 0.705573
vn 0.037897 -0.297858 0.953858
vn 0.037897 -0.297858 0.953858
vn 0.259368 -0.778682 0.571299
vn 0.259368 -0.778682 0.571299
vn -0.443716 0.887903 0.121427
vn -0.932457 0.325238 -0.157301
vn -0.722434 0.325251 0.610165
vn 0.706741 0.097349 0.700743
vn 0.262309 0.790527 0.553408
vn 0.262309 0.790527 0.553408
vn 0.051847 0.313049 0.948321
vn 0.051847 0.313049 0.948321
vn 0.157325 0.325237 -0.932454
vn -0.610157 0.325251 -0.722441
vn -0.121422 0.887924 -0.443676
vn 0.964871 0.094366 0.245191
vn 0.840283 0.297823 -0.453019
vn 0.840283 0.297823 -0.453019
vn 0.623828 0.778628 -0.067653
vn 0.623828 0.778628 -0.067653
vn 0.254660 -0.812346 0.524636
vn 0.029606 -0.339578 0.940112
vn 0.764914 -0.247472 0.594697
vn 0.033710 0.339653 0.939946
vn 0.253711 0.813276 0.523653
vn 0.765499 0.248478 0.593523
vn 0.826150 -0.339686 -0.449545
vn 0.579859 -0.813282 -0.048344
vn 0.900579 -0.248479 0.356672
vn 0.581258 0.812312 -0.047838
vn 0.824221 0.339599 -0.453136
vn 0.901277 0.247512 0.355580
vn 0.121411 -0.887928 0.443671
vn 0.610177 -0.325267 0.722416
vn -0.157325 -0.325265 0.932444
vn 0.610164 0.325323 0.722402
vn 0.121408 0.887928 0.443670
vn -0.157315 0.325320 0.932426
vn 0.722417 -0.325312 -0.610152
vn 0.932431 -0.325298 0.157332
vn 0.443697 -0.887916 -0.121402
vn 0.443703 0.887914 -0.121397
vn 0.932411 0.325355 0.157332
vn 0.722408 0.325367 -0.610134
s 1
g box_outside midden_scene
usemtl initialShadingGroup
f 2/1/1 1/57/2 43/78/3 48/42/4
s 2
f 1/57/5 6/44/6 44/9/7 43/78/8
s 3
f 4/2/9 3/58/10 11/157/11 10/37/12
s 1
f 3/160/13 2/1/1 12/4/14 11/62/15
s 2
f 6/44/6 5/59/16 17/65/17 16/45/18
s 3
f 5/59/19 4/2/9 18/5/20 17/65/21
s 4
f 8/3/22 7/60/23 69/154/24 68/50/25
f 7/159/23 14/47/26 70/18/27 69/91/24
s 3
f 10/37/12 9/61/28 27/70/29 26/6/30
s 4
f 9/61/31 8/3/22 28/7/32 27/70/33
f 14/47/26 13/63/34 51/82/35 50/48/36
s 1
f 13/63/37 12/4/14 52/14/38 51/82/39
s 2
f 16/45/18 15/64/40 31/72/41 30/46/42
s 7
f 15/64/43 20/38/44 32/10/45 31/72/46
f 20/38/44 19/66/47 25/149/48 24/39/49
s 3
f 19/152/50 18/5/20 26/6/30 25/69/51
s 4
f 22/8/52 21/67/53 85/146/54 84/26/55
f 21/151/53 28/7/32 86/23/56 85/99/54
s 7
f 24/39/49 23/68/57 41/77/58 40/11/59
s 4
f 23/68/60 22/8/52 42/12/61 41/77/62
s 2
f 30/46/42 29/71/63 45/79/64 44/9/7
s 10
f 29/71/65 34/40/66 46/15/67 45/79/68
f 34/40/66 33/73/69 39/133/70 38/41/71
s 7
f 33/136/72 32/10/45 40/11/59 39/76/73
s 4
f 36/13/74 35/74/75 77/130/76 76/21/77
f 35/135/75 42/12/61 78/25/78 77/95/76
s 10
f 38/41/71 37/75/79 55/84/80 54/16/81
s 4
f 37/75/82 36/13/74 56/17/83 55/84/84
s 1
f 48/42/4 47/80/85 53/141/86 52/14/38
s 10
f 47/144/87 46/15/67 54/16/81 53/83/88
s 4
f 50/48/36 49/81/89 61/138/90 60/49/91
f 49/143/89 56/17/83 62/20/92 61/87/90
s 13
f 58/19/93 57/85/94 93/137/95 92/51/96
s 14
f 57/140/97 64/52/98 94/28/99 93/103/100
s 4
f 60/49/91 59/86/101 71/92/102 70/18/27
s 13
f 59/86/103 58/19/93 72/22/104 71/92/105
s 14
f 64/52/98 63/88/106 75/94/107 74/53/108
s 4
f 63/88/109 62/20/92 76/21/77 75/94/110
s 15
f 66/24/111 65/89/112 97/153/113 96/56/114
s 13
f 65/156/115 72/22/104 98/30/116 97/105/117
s 4
f 68/50/25 67/90/118 87/100/119 86/23/56
s 15
f 67/90/120 66/24/111 88/27/121 87/100/122
s 14
f 74/53/108 73/93/123 105/129/124 104/29/125
s 16
f 73/132/126 80/54/127 106/35/128 105/109/129
f 80/54/127 79/96/130 83/98/131 82/55/132
s 4
f 79/96/133 78/25/78 84/26/55 83/98/134
s 16
f 82/55/132 81/97/135 111/145/136 110/36/137
s 15
f 81/148/138 88/27/121 112/32/139 111/112/140
s 17
f 90/31/141 89/101/142 103/165/143 102/43/144
s 14
f 89/167/145 94/28/99 104/29/125 103/108/146
s 13
f 92/51/96 91/102/147 99/174/148 98/30/116
s 17
f 91/175/149 90/31/141 100/33/150 99/106/151
s 15
f 96/56/114 95/104/152 107/161/153 112/32/139
s 17
f 95/163/154 100/33/150 108/34/155 107/110/156
f 102/43/144 101/107/157 109/169/158 108/34/155
s 16
f 101/171/159 106/35/128 110/36/137 109/111/160
s 3
f 4/2/9 10/37/12 26/6/30 18/5/20
s 7
f 20/38/44 24/39/49 40/11/59 32/10/45
s 10
f 34/40/66 38/41/71 54/16/81 46/15/67
s 1
f 48/42/4 52/14/38 12/4/14 2/1/1
s 17
f 100/33/150 90/31/141 102/43/144 108/34/155
s 2
f 44/9/7 6/44/6 16/45/18 30/46/42
s 4
f 14/47/26 50/48/36 60/49/91 70/18/27
f 56/17/83 36/13/74 76/21/77 62/20/92
f 42/12/61 22/8/52 84/26/55 78/25/78
f 28/7/32 8/3/22 68/50/25 86/23/56
s 13
f 72/22/104 58/19/93 92/51/96 98/30/116
s 14
f 64/52/98 74/53/108 104/29/125 94/28/99
s 16
f 80/54/127 82/55/132 110/36/137 106/35/128
s 15
f 88/27/121 66/24/111 96/56/114 112/32/139
s 2
f 5/59/16 6/44/6 1/57/5 113/113/161
s 1
f 1/57/2 2/1/1 3/160/13 113/113/162
s 3
f 3/58/10 4/2/9 5/59/19 113/113/163
s 4
f 13/63/34 14/47/26 7/159/23 114/158/164
f 7/60/23 8/3/22 9/61/31 114/114/164
s 3
f 9/61/28 10/37/12 11/157/165 114/114/166
s 1
f 11/62/167 12/4/14 13/63/37 114/158/168
s 7
f 19/66/47 20/38/44 15/64/43 115/115/169
s 2
f 15/64/40 16/45/18 17/65/17 115/115/170
s 3
f 17/65/21 18/5/20 19/152/50 115/115/171
s 4
f 27/70/33 28/7/32 21/151/53 116/150/172
f 21/67/53 22/8/52 23/68/60 116/116/172
s 7
f 23/68/57 24/39/49 25/149/173 116/116/174
s 3
f 25/69/175 26/6/30 27/70/29 116/150/176
s 10
f 33/73/69 34/40/66 29/71/65 117/117/177
s 2
f 29/71/63 30/46/42 31/72/41 117/117/178
s 7
f 31/72/46 32/10/45 33/136/72 117/117/179
s 4
f 41/77/62 42/12/61 35/135/75 118/134/180
f 35/74/75 36/13/74 37/75/82 118/118/180
s 10
f 37/75/79 38/41/71 39/133/181 118/118/182
s 7
f 39/76/183 40/11/59 41/77/58 118/134/184
s 1
f 47/80/85 48/42/4 43/78/3 119/119/185
s 2
f 43/78/8 44/9/7 45/79/64 119/119/186
s 10
f 45/79/68 46/15/67 47/144/87 119/119/187
s 4
f 55/84/84 56/17/83 49/143/89 120/142/188
f 49/81/89 50/48/36 51/82/35 120/120/188
s 1
f 51/82/39 52/14/38 53/141/189 120/120/190
s 10
f 53/83/191 54/16/81 55/84/80 120/142/192
s 14
f 63/88/106 64/52/98 57/140/97 121/139/193
s 13
f 57/85/94 58/19/93 59/86/103 121/121/194
s 4
f 59/86/101 60/49/91 61/138/90 121/121/195
f 61/87/90 62/20/92 63/88/109 121/139/195
s 13
f 71/92/105 72/22/104 65/156/115 122/155/196
s 15
f 65/89/112 66/24/111 67/90/120 122/122/197
s 4
f 67/90/118 68/50/25 69/154/24 122/122/198
f 69/91/24 70/18/27 71/92/102 122/155/198
s 16
f 79/96/130 80/54/127 73/132/126 123/131/199
s 14
f 73/93/123 74/53/108 75/94/107 123/123/200
s 4
f 75/94/110 76/21/77 77/130/76 123/123/201
f 77/95/76 78/25/78 79/96/133 123/131/201
s 15
f 87/100/122 88/27/121 81/148/138 124/147/202
s 16
f 81/97/135 82/55/132 83/98/131 124/124/203
s 4
f 83/98/134 84/26/55 85/146/54 124/124/204
f 85/99/54 86/23/56 87/100/119 124/147/204
s 14
f 93/103/100 94/28/99 89/167/145 125/168/205
s 17
f 89/101/142 90/31/141 91/175/149 125/125/206
s 13
f 91/102/147 92/51/96 93/137/95 125/176/207
s 17
f 99/106/151 100/33/150 95/163/154 126/164/208
s 15
f 95/104/152 96/56/114 97/153/113 126/126/209
s 13
f 97/105/117 98/30/116 99/174/148 126/173/210
s 16
f 105/109/129 106/35/128 101/171/159 127/172/211
s 17
f 101/107/157 102/43/144 103/165/143 127/127/212
s 14
f 103/108/146 104/29/125 105/129/124 127/166/213
s 15
f 111/112/140 112/32/139 107/161/153 128/162/214
s 17
f 107/110/156 108/34/155 109/169/158 128/128/215
s 16
f 109/111/160 110/36/137 111/145/136 128/170/216
