# This file uses centimeters as units for non-parametric coordinates.

mtllib doos geuvt 2.mtl
g default
v -3.157585 3.040923 -2.283741
v -2.269066 3.040923 -2.283741
v -3.157585 3.189010 -2.283741
v -2.269066 3.189010 -2.283741
v -3.157585 3.189010 -2.896515
v -2.269066 3.189010 -2.896515
v -3.157585 3.040923 -2.896515
v -2.269066 3.040923 -2.896515
v -3.120561 3.189010 -2.312553
v -2.306091 3.189010 -2.312553
v -2.306091 3.189010 -2.867703
v -3.120561 3.189010 -2.867703
v -3.120561 3.080132 -2.312553
v -2.306091 3.080132 -2.312553
v -2.306091 3.080132 -2.867704
v -3.120561 3.080132 -2.867704
vt 0.445485 0.116730
vt 0.120561 0.110214
vt 0.446571 0.062575
vt 0.066407 0.109128
vt 0.439906 0.394970
vt 0.440992 0.340816
vt 0.061913 0.333215
vt 0.116068 0.334301
vt 0.070995 0.786489
vt 0.110298 0.524544
vt 0.474311 0.562460
vt 0.435008 0.824405
vt 0.113850 0.785907
vt 0.110880 0.567399
vt 0.431457 0.563042
vt 0.434426 0.781550
vt 0.492008 0.792110
vt 0.100013 0.840300
vt 0.445293 0.508649
vt 0.053299 0.556839
vt 0.114432 0.828761
vt 0.477281 0.780968
vt 0.430874 0.520188
vt 0.068026 0.567981
vt 0.449736 0.835547
vt 0.056576 0.798027
vt 0.488730 0.550921
vt 0.095571 0.513402
vt 0.114982 0.388455
vt 0.495146 0.341902
vt 0.121647 0.056060
vt 0.499639 0.117816
vn 0.000000 0.000000 1.000000
vn 0.000000 0.000000 1.000000
vn 0.000000 0.000000 1.000000
vn 0.000000 0.000000 1.000000
vn 0.000000 1.000000 0.000000
vn 0.000000 1.000000 0.000000
vn 0.000000 1.000000 0.000000
vn 0.000000 1.000000 0.000000
vn -0.000000 -0.000000 -1.000000
vn -0.000000 -0.000000 -1.000000
vn -0.000000 -0.000000 -1.000000
vn -0.000000 -0.000000 -1.000000
vn 0.000000 -1.000000 0.000000
vn 0.000000 -1.000000 0.000000
vn 0.000000 -1.000000 0.000000
vn 0.000000 -1.000000 0.000000
vn -1.000000 0.000001 0.000000
vn -1.000000 0.000001 0.000000
vn -1.000000 0.000001 0.000000
vn -1.000000 0.000001 0.000000
vn 1.000000 0.000000 0.000000
vn 1.000000 0.000000 0.000000
vn 1.000000 0.000000 0.000000
vn 1.000000 0.000000 0.000000
vn -0.000000 1.000000 -0.000005
vn -0.000000 1.000000 -0.000005
vn -0.000000 1.000000 -0.000005
vn -0.000000 1.000000 -0.000005
vn -0.000008 1.000000 0.000000
vn -0.000008 1.000000 0.000000
vn -0.000008 1.000000 0.000000
vn -0.000008 1.000000 0.000000
vn -0.000000 1.000000 0.000005
vn -0.000000 1.000000 0.000005
vn -0.000000 1.000000 0.000005
vn -0.000000 1.000000 0.000005
vn 0.000000 1.000000 0.000000
vn 0.000000 1.000000 0.000000
vn 0.000000 1.000000 0.000000
vn 0.000000 1.000000 0.000000
vn 0.000000 0.000000 -1.000000
vn 0.000000 0.000000 -1.000000
vn 0.000000 0.000000 -1.000000
vn 0.000000 0.000000 -1.000000
vn -1.000000 -0.000000 0.000000
vn -1.000000 -0.000000 0.000000
vn -1.000000 -0.000000 0.000000
vn -1.000000 -0.000000 0.000000
vn 0.000000 -0.000003 1.000000
vn 0.000000 -0.000003 1.000000
vn 0.000000 -0.000003 1.000000
vn 0.000000 -0.000003 1.000000
vn 1.000000 -0.000002 0.000000
vn 1.000000 -0.000002 0.000000
vn 1.000000 -0.000002 0.000000
vn 1.000000 -0.000002 0.000000
s off
g box_inside midden_scene
usemtl initialShadingGroup
f 1/1/1 2/2/2 4/31/3 3/3/4
f 13/14/5 14/15/6 15/16/7 16/13/8
f 5/5/9 6/29/10 8/8/11 7/6/12
f 7/6/13 8/8/14 2/2/15 1/1/16
f 7/6/17 1/1/18 3/32/19 5/30/20
f 6/7/21 4/4/22 2/2/23 8/8/24
f 3/28/25 4/19/26 10/23/27 9/10/28
f 4/27/29 6/17/30 11/22/31 10/11/32
f 6/25/33 5/18/34 12/21/35 11/12/36
f 5/26/37 3/20/38 9/24/39 12/9/40
f 9/10/41 10/23/42 14/15/43 13/14/44
f 10/11/45 11/22/46 15/16/47 14/15/48
f 11/12/49 12/21/50 16/13/51 15/16/52
f 12/9/53 9/24/54 13/14/55 16/13/56
g default
v -2.112400 3.045846 -2.760425
v -2.108661 3.045846 -2.759953
v -2.109376 3.042365 -2.758700
v -2.111101 3.040923 -2.755676
v -2.114125 3.042365 -2.757401
v -2.115378 3.045846 -2.758115
v -1.296493 3.048106 -2.289680
v -1.297748 3.046029 -2.287479
v -1.297612 3.042434 -2.290571
v -1.300025 3.040923 -2.293227
v -1.298291 3.042306 -2.296166
v -1.297547 3.045647 -2.297369
v -1.295337 3.047898 -2.294481
v -1.295974 3.053121 -2.290591
v -2.188865 3.045846 -2.626348
v -2.188393 3.045846 -2.630087
v -2.187140 3.042365 -2.629372
v -2.184116 3.040923 -2.627647
v -2.185841 3.042365 -2.624623
v -2.186555 3.045846 -2.623370
v -1.368287 3.048106 -2.163794
v -1.368807 3.053121 -2.162883
v -1.371856 3.047966 -2.160372
v -1.375528 3.045747 -2.160835
v -1.374799 3.042335 -2.162013
v -1.373101 3.040923 -2.164893
v -1.369629 3.042427 -2.164236
v -1.367032 3.046029 -2.165994
v -2.187141 3.668413 -2.629372
v -2.188393 3.664932 -2.630087
v -2.188865 3.664932 -2.626348
v -2.186555 3.664932 -2.623370
v -2.185841 3.668413 -2.624623
v -2.184116 3.669856 -2.627647
v -1.368287 3.662672 -2.163794
v -1.367032 3.664749 -2.165994
v -1.369624 3.668344 -2.164302
v -1.373139 3.669856 -2.165028
v -1.374785 3.668472 -2.162039
v -1.375441 3.665131 -2.160786
v -1.371831 3.662880 -2.160354
v -1.368807 3.657658 -2.162883
v -2.112400 3.664932 -2.760425
v -2.115378 3.664932 -2.758115
v -2.114125 3.668413 -2.757401
v -2.111101 3.669856 -2.755676
v -2.109376 3.668413 -2.758700
v -2.108661 3.664932 -2.759953
v -1.296493 3.662672 -2.289680
v -1.295974 3.657658 -2.290591
v -1.295365 3.662811 -2.294494
v -1.297634 3.665031 -2.297418
v -1.298276 3.668443 -2.296191
v -1.299891 3.669856 -2.293264
v -1.297557 3.668352 -2.290609
v -1.297748 3.664749 -2.287479
v -1.308459 3.642810 -2.278450
v -1.307788 3.639372 -2.279686
v -1.304068 3.640929 -2.279267
v -1.301141 3.644820 -2.281530
v -1.301930 3.647991 -2.280147
v -1.303835 3.649304 -2.276807
v -1.306535 3.645699 -2.274909
v -1.310113 3.644233 -2.275487
v -1.308459 3.067969 -2.278450
v -1.310113 3.066545 -2.275487
v -1.306533 3.065090 -2.274913
v -1.303833 3.061503 -2.276810
v -1.301908 3.062806 -2.280185
v -1.301111 3.065951 -2.281583
v -1.304055 3.069854 -2.279289
v -1.307788 3.071405 -2.279686
v -1.364714 3.642810 -2.179809
v -1.363006 3.644233 -2.182743
v -1.360689 3.645687 -2.179953
v -1.360947 3.649275 -2.176664
v -1.362872 3.647971 -2.173289
v -1.363669 3.644827 -2.171891
v -1.363194 3.640925 -2.175592
v -1.365437 3.639372 -2.178604
v -1.364714 3.067969 -2.179809
v -1.365437 3.071405 -2.178604
v -1.363182 3.069850 -2.175614
v -1.363640 3.065959 -2.171943
v -1.362850 3.062787 -2.173327
v -1.360946 3.061473 -2.176667
v -1.360687 3.065079 -2.179957
v -1.363006 3.066545 -2.182743
v -2.015729 3.642791 -2.677762
v -2.016982 3.639309 -2.678476
v -2.014004 3.639309 -2.680786
v -2.010266 3.639309 -2.680314
v -2.010980 3.642791 -2.679061
v -2.012705 3.644233 -2.676037
v -2.015729 3.067987 -2.677762
v -2.012705 3.066545 -2.676037
v -2.010980 3.067987 -2.679061
v -2.010266 3.071468 -2.680314
v -2.014004 3.071468 -2.680786
v -2.016982 3.071468 -2.678476
v -2.070223 3.639309 -2.582209
v -2.069751 3.639309 -2.585948
v -2.068498 3.642791 -2.585233
v -2.065474 3.644233 -2.583508
v -2.067199 3.642791 -2.580484
v -2.067914 3.639309 -2.579231
v -2.068498 3.067987 -2.585233
v -2.069751 3.071468 -2.585948
v -2.070223 3.071468 -2.582209
v -2.067914 3.071468 -2.579231
v -2.067199 3.067987 -2.580484
v -2.065474 3.066545 -2.583508
v -2.112161 3.043005 -2.759552
v -1.296039 3.044003 -2.293294
v -2.187992 3.043005 -2.626587
v -1.371174 3.044019 -2.161548
v -2.187992 3.667773 -2.626587
v -1.371166 3.666776 -2.161563
v -2.112161 3.667774 -2.759552
v -1.296030 3.666759 -2.293308
v -1.304773 3.644279 -2.278009
v -1.304762 3.066510 -2.278026
v -1.362467 3.644267 -2.176844
v -1.362458 3.066499 -2.176862
v -2.013766 3.642151 -2.679913
v -2.013766 3.068627 -2.679913
v -2.069350 3.642151 -2.582447
v -2.069350 3.068627 -2.582447
vt 0.995584 0.307029
vt 0.162748 0.807091
vt 0.158234 0.389442
vt 0.594716 0.313316
vt 0.228151 0.806117
vt 0.222012 0.391843
vt 0.220257 0.388542
vt 0.632486 0.031666
vt 0.304205 0.889142
vt 0.238446 0.297773
vt 0.635396 0.290714
vt 0.638528 0.287627
vt 0.113223 0.456224
vt 0.600435 0.577897
vt 0.043351 0.039541
vt 0.049445 0.453816
vt 0.051200 0.457117
vt 0.587224 0.321699
vt 0.589320 0.567540
vt 0.056616 0.463917
vt 0.107968 0.463161
vt 0.584069 0.324015
vt 0.214840 0.381743
vt 0.165358 0.379105
vt 0.642797 0.282397
vt 0.637011 0.036756
vt 0.212883 0.378403
vt 0.063137 0.825978
vt 0.110369 0.825500
vt 0.241746 0.328968
vt 0.852025 0.710067
vt 0.208287 0.019683
vt 0.429568 0.712561
vt 0.430037 0.791809
vt 0.984895 0.274481
vt 0.985448 0.036856
vt 0.156604 0.392837
vt 0.236070 0.034297
vt 0.629183 0.028722
vt 0.108753 0.038574
vt 0.114853 0.452829
vt 0.997425 0.573101
vt 0.852494 0.789315
vt 0.292130 0.615644
vt 0.357242 0.612769
vt 0.369317 0.886267
vt 0.591547 0.316427
vt 0.597105 0.574917
vt 0.592547 0.569768
vt 0.163489 0.382504
vt 0.240684 0.568929
vt 0.058573 0.467257
vt 0.106098 0.466560
vt 0.645917 0.280096
vt 0.640211 0.038954
vt 0.161055 0.020165
vt 0.997193 0.306960
vt 0.161077 0.807160
vt 0.292010 0.613982
vt 0.157035 0.388618
vt 0.157090 0.391176
vt 0.594572 0.311774
vt 0.593183 0.314284
vt 0.358904 0.612651
vt 0.228223 0.807787
vt 0.236025 0.032703
vt 0.632788 0.029526
vt 0.630768 0.029619
vt 0.223618 0.391737
vt 0.221469 0.390231
vt 0.369436 0.887929
vt 0.236853 0.297845
vt 0.110424 0.038506
vt 0.114423 0.457048
vt 0.114368 0.454490
vt 0.635542 0.292240
vt 0.636912 0.289752
vt 0.302543 0.889260
vt 0.043279 0.037870
vt 0.997467 0.574711
vt 0.596796 0.577078
vt 0.598836 0.576987
vt 0.047840 0.453922
vt 0.049988 0.455428
vt 0.589186 0.569121
vt 0.590933 0.568199
vt 0.054869 0.464441
vt 0.057948 0.465618
vt 0.163727 0.378999
vt 0.164775 0.380763
vt 0.586580 0.320341
vt 0.585663 0.323315
vt 0.107729 0.466665
vt 0.106681 0.464901
vt 0.643438 0.283740
vt 0.644340 0.280794
vt 0.640341 0.037389
vt 0.638613 0.038306
vt 0.216588 0.381219
vt 0.213508 0.380042
vt 0.854827 0.709973
vt 0.239074 0.568971
vt 0.061467 0.826047
vt 0.160990 0.018495
vt 0.241643 0.327362
vt 0.429477 0.709759
vt 0.852585 0.792118
vt 0.110434 0.827170
vt 0.985000 0.276072
vt 0.427236 0.791904
vt 0.987042 0.036811
vt 0.209958 0.019614
vt 0.996883 0.305668
vt 0.155593 0.390811
vt 0.358570 0.611319
vt 0.631079 0.027895
vt 0.370768 0.887595
vt 0.115864 0.454855
vt 0.302877 0.890592
vt 0.598518 0.578728
vt 0.590522 0.569717
vt 0.163077 0.380368
vt 0.108379 0.465297
vt 0.639016 0.036802
vt 0.854351 0.707713
vt 0.159645 0.018783
vt 0.854845 0.791641
vt 0.427712 0.794164
vt 0.112041 0.825529
vt 0.109745 0.463641
vt 0.644798 0.282279
vt 0.646089 0.281658
vt 0.116485 0.452927
vt 0.637283 0.291446
vt 0.638912 0.289754
vt 0.238451 0.299368
vt 0.240609 0.570537
vt 0.591956 0.571156
vt 0.056268 0.466060
vt 0.056945 0.467404
vt 0.600299 0.579466
vt 0.048517 0.455833
vt 0.050019 0.457970
vt 0.041679 0.039524
vt 0.985519 0.035264
vt 0.637594 0.035380
vt 0.215188 0.379600
vt 0.214511 0.378256
vt 0.629314 0.027168
vt 0.222940 0.389826
vt 0.221438 0.387689
vt 0.229823 0.806134
vt 0.159384 0.020136
vt 0.161712 0.382025
vt 0.585204 0.321814
vt 0.583899 0.322439
vt 0.154973 0.392739
vt 0.592812 0.312573
vt 0.591163 0.314278
vt 0.995582 0.305419
vt 0.208313 0.018014
vt 0.209664 0.018269
vt 0.426771 0.712501
vt 0.427217 0.710235
vt 0.855292 0.789375
vt 0.111779 0.826882
vt 0.063111 0.827647
vt 0.061760 0.827392
vt 0.429978 0.794611
vt 0.986794 0.035544
vt 0.986489 0.274505
vt 0.986265 0.275774
vt 0.240365 0.327660
vt 0.240136 0.328941
vt 0.852084 0.707265
vt 0.239322 0.570252
vt 0.304233 0.890806
vt 0.041933 0.038168
vt 0.108773 0.036904
vt 0.110128 0.037159
vt 0.357214 0.611105
vt 0.229569 0.807489
vt 0.161374 0.808506
vt 0.162728 0.808761
vt 0.999034 0.573131
vt 0.998759 0.574430
vt 0.370983 0.886238
vt 0.237163 0.299124
vt 0.234476 0.034270
vt 0.234746 0.032984
vt 0.290464 0.615673
vt 0.290679 0.614317
vn 0.494071 -0.002286 -0.869419
vn 0.125488 -0.002147 -0.992093
vn 0.125489 0.002146 -0.992093
vn 0.494071 0.002263 -0.869419
vn -0.613007 -0.000844 -0.790077
vn -0.863893 -0.002301 -0.503670
vn -0.863893 0.002301 -0.503670
vn -0.613007 0.000844 -0.790077
vn 0.003300 -0.999955 -0.008869
vn 0.187406 -0.925314 -0.329656
vn 0.187834 -0.925295 -0.329466
vn 0.005213 -0.999955 -0.007872
vn 0.455713 -0.385892 -0.802130
vn 0.496417 -0.002285 -0.868081
vn 0.456937 -0.386069 -0.801349
vn -0.799661 -0.382061 -0.463219
vn -0.805830 -0.382062 -0.452402
vn -0.873349 -0.002301 -0.487089
vn -0.328655 -0.924143 -0.194794
vn -0.005999 -0.999954 0.007436
vn -0.334989 -0.924143 -0.183688
vn 0.842584 -0.244648 0.479792
vn 0.896092 -0.055983 0.440324
vn 0.847020 0.025504 0.530950
vn 0.868160 0.010702 0.496168
vn 0.926472 -0.000260 0.376365
vn 0.829402 0.000107 0.558653
vn 0.355975 -0.912788 0.200250
vn 0.353815 -0.912783 0.204062
vn -0.004181 -0.999955 0.008556
vn 0.832484 -0.336975 0.439795
vn 0.841935 -0.245004 0.480749
vn 0.802459 -0.335252 0.493625
vn 0.987382 -0.000527 0.158355
vn 0.987389 0.000562 0.158309
vn 0.926380 0.000270 0.376590
vn 0.792820 -0.002237 -0.609452
vn 0.496422 0.002276 -0.868078
vn 0.792777 0.002261 -0.609507
vn -0.992111 -0.000844 -0.125358
vn -0.992111 0.000844 -0.125358
vn -0.873349 0.002301 -0.487089
vn -0.789958 -0.002147 0.613157
vn -0.496734 -0.002263 0.867900
vn -0.496734 0.002286 0.867900
vn -0.789958 0.002147 0.613157
vn -0.459693 -0.379252 0.803026
vn -0.458412 -0.379399 0.803688
vn -0.494384 -0.002276 0.869241
vn -0.191632 -0.922549 0.334934
vn -0.191253 -0.922525 0.335215
vn 0.795776 -0.000270 0.605591
vn 0.834609 -0.054302 0.548159
vn 0.888324 0.025384 0.458515
vn 0.903122 0.000118 0.429384
vn 0.869062 0.010710 0.494587
vn -0.120879 -0.002261 0.992665
vn -0.120809 0.002237 0.992673
vn -0.494388 0.002285 0.869238
vn 0.638930 -0.000562 0.769265
vn 0.795630 0.000260 0.605783
vn 0.638965 0.000527 0.769235
vn -0.805869 0.381954 -0.452423
vn -0.799699 0.381954 -0.463242
vn -0.334971 0.924152 -0.183676
vn -0.005954 0.999955 0.007357
vn 0.003346 0.999954 -0.008950
vn -0.328637 0.924152 -0.194783
vn -0.188338 0.925290 0.329190
vn -0.187958 0.925271 0.329462
vn -0.004122 0.999955 0.008497
vn -0.458355 0.385875 0.800632
vn -0.457058 0.386051 0.801288
vn 0.841947 0.244634 0.480916
vn 0.835249 0.055989 0.547014
vn 0.888224 -0.025517 0.458701
vn 0.869063 -0.010706 0.494586
vn 0.903111 -0.000106 0.429406
vn 0.353633 0.912768 0.204448
vn 0.355815 0.912763 0.200648
vn 0.005236 0.999955 -0.007955
vn 0.802393 0.336933 0.492586
vn 0.842441 0.244989 0.479867
vn 0.833422 0.335250 0.439335
vn 0.457101 0.379220 -0.804519
vn 0.458323 0.379367 -0.803754
vn 0.190717 0.922536 -0.335492
vn 0.191152 0.922512 -0.335309
vn 0.896735 0.054318 0.439221
vn 0.846920 -0.025385 0.531114
vn 0.829386 -0.000118 0.558675
vn 0.868161 -0.010710 0.496167
vn -0.493549 -0.002500 0.869714
vn -0.456958 -0.380632 0.803933
vn -0.456680 -0.380436 0.804184
vn -0.493866 -0.002484 0.869534
vn -0.187141 -0.923049 0.336094
vn -0.003804 -0.999912 0.012734
vn -0.004906 -0.999914 0.012150
vn -0.190056 -0.923056 0.334434
vn 0.614183 -0.001297 0.789162
vn 0.614212 0.001254 0.789140
vn -0.108177 -0.001477 0.994131
vn -0.493553 0.002500 0.869712
vn -0.108166 0.001422 0.994132
vn 0.331728 -0.909220 0.251547
vn 0.385460 -0.909262 0.157046
vn 0.009026 -0.999912 -0.009757
vn 0.808964 -0.363511 0.461992
vn 0.809571 -0.363518 0.460922
vn -0.003802 0.999912 0.012736
vn -0.187136 0.923051 0.336091
vn -0.190056 0.923056 0.334434
vn -0.004906 0.999914 0.012150
vn -0.456941 0.380705 0.803909
vn -0.493866 0.002484 0.869534
vn -0.456666 0.380506 0.804159
vn 0.808915 0.363467 0.462113
vn 0.809526 0.363461 0.461047
vn 0.331494 0.909230 0.251816
vn 0.009024 0.999912 -0.009758
vn 0.385453 0.909187 0.157497
vn 0.193997 -0.923042 -0.332203
vn 0.191084 -0.923047 -0.333872
vn 0.007959 -0.999914 -0.010409
vn 0.459265 -0.380659 -0.802605
vn 0.497251 -0.002501 -0.867603
vn 0.496938 -0.002485 -0.867783
vn 0.459620 -0.380461 -0.802495
vn 0.800525 -0.001423 -0.599298
vn 0.800518 0.001477 -0.599307
vn 0.497255 0.002501 -0.867601
vn 0.991918 -0.001254 0.126871
vn 0.991923 0.001297 0.126835
vn 0.459249 0.380728 -0.802581
vn 0.459606 0.380531 -0.802470
vn 0.496938 0.002485 -0.867782
vn 0.193998 0.923040 -0.332208
vn 0.007959 0.999914 -0.010409
vn 0.191084 0.923047 -0.333872
vn 0.862104 -0.002501 0.506726
vn 0.798607 -0.381740 0.465296
vn 0.807083 -0.381741 0.450433
vn 0.875071 -0.002501 0.483988
vn 0.327235 -0.924236 0.196739
vn 0.335938 -0.924235 0.181480
vn -0.125572 -0.002339 0.992082
vn -0.125571 0.002339 0.992082
vn 0.613029 -0.000920 0.790060
vn 0.862104 0.002501 0.506726
vn 0.613029 0.000920 0.790060
vn 0.327240 0.924233 0.196742
vn 0.335944 0.924232 0.181483
vn 0.798587 0.381797 0.465284
vn 0.875071 0.002501 0.483988
vn 0.807063 0.381798 0.450422
vn 0.992110 -0.000920 0.125371
vn 0.992110 0.000920 0.125371
vn 0.789958 -0.002340 -0.613157
vn 0.789958 0.002340 -0.613156
vn -0.610127 -0.325318 -0.722436
vn 0.157294 -0.325308 -0.932434
vn -0.121431 -0.887898 -0.443724
vn 0.962958 -0.097353 0.251464
vn 0.609899 -0.790499 -0.055979
vn 0.609899 -0.790499 -0.055979
vn 0.842563 -0.313079 -0.438257
vn 0.842563 -0.313079 -0.438257
vn -0.722435 -0.325328 0.610123
vn -0.932409 -0.325357 -0.157340
vn -0.443702 -0.887917 0.121379
vn 0.702326 -0.094363 0.705573
vn 0.037897 -0.297858 0.953858
vn 0.037897 -0.297858 0.953858
vn 0.259368 -0.778682 0.571299
vn 0.259368 -0.778682 0.571299
vn -0.443716 0.887903 0.121427
vn -0.932457 0.325238 -0.157301
vn -0.722434 0.325251 0.610165
vn 0.706741 0.097349 0.700743
vn 0.262309 0.790527 0.553408
vn 0.262309 0.790527 0.553408
vn 0.051847 0.313049 0.948321
vn 0.051847 0.313049 0.948321
vn 0.157325 0.325237 -0.932454
vn -0.610157 0.325251 -0.722441
vn -0.121422 0.887924 -0.443676
vn 0.964871 0.094366 0.245191
vn 0.840283 0.297823 -0.453019
vn 0.840283 0.297823 -0.453019
vn 0.623828 0.778628 -0.067653
vn 0.623828 0.778628 -0.067653
vn 0.254660 -0.812346 0.524636
vn 0.029606 -0.339578 0.940112
vn 0.764914 -0.247472 0.594697
vn 0.033710 0.339653 0.939946
vn 0.253711 0.813276 0.523653
vn 0.765499 0.248478 0.593523
vn 0.826150 -0.339686 -0.449545
vn 0.579859 -0.813282 -0.048344
vn 0.900579 -0.248479 0.356672
vn 0.581258 0.812312 -0.047838
vn 0.824221 0.339599 -0.453136
vn 0.901277 0.247512 0.355580
vn 0.121411 -0.887928 0.443671
vn 0.610177 -0.325267 0.722416
vn -0.157325 -0.325265 0.932444
vn 0.610164 0.325323 0.722402
vn 0.121408 0.887928 0.443670
vn -0.157315 0.325320 0.932426
vn 0.722417 -0.325312 -0.610152
vn 0.932431 -0.325298 0.157332
vn 0.443697 -0.887916 -0.121402
vn 0.443703 0.887914 -0.121397
vn 0.932411 0.325355 0.157332
vn 0.722408 0.325367 -0.610134
s 1
g midden_scene box_outside
usemtl initialShadingGroup
f 18/33/57 17/89/58 59/217/59 64/74/60
s 2
f 17/223/61 22/76/62 60/41/63 59/110/64
s 3
f 20/34/65 19/90/66 27/189/67 26/69/68
s 1
f 19/192/69 18/33/57 28/36/70 27/94/71
s 2
f 22/76/62 21/91/72 33/213/73 32/77/74
s 3
f 21/216/75 20/34/65 34/37/76 33/97/77
s 4
f 24/35/78 23/92/79 85/186/80 84/82/81
f 23/191/79 30/79/82 86/50/83 85/123/80
s 3
f 26/69/68 25/93/84 43/102/85 42/38/86
s 4
f 25/93/87 24/35/78 44/39/88 43/102/89
f 30/79/82 29/95/90 67/114/91 66/80/92
s 1
f 29/95/93 28/36/70 68/46/94 67/114/95
s 2
f 32/77/74 31/96/96 47/219/97 46/78/98
s 7
f 31/221/99 36/70/100 48/42/101 47/104/102
f 36/70/100 35/98/103 41/181/104 40/71/105
s 3
f 35/184/106 34/37/76 42/38/86 41/101/107
s 4
f 38/40/108 37/99/109 101/178/110 100/58/111
f 37/183/109 44/39/88 102/55/112 101/131/110
s 7
f 40/71/105 39/100/113 57/109/114 56/43/115
s 4
f 39/100/116 38/40/108 58/44/117 57/109/118
s 2
f 46/78/98 45/103/119 61/209/120 60/41/63
s 10
f 45/211/121 50/72/122 62/47/123 61/111/124
f 50/72/122 49/105/125 55/165/126 54/73/127
s 7
f 49/168/128 48/42/101 56/43/115 55/108/129
s 4
f 52/45/130 51/106/131 93/162/132 92/53/133
f 51/167/131 58/44/117 94/57/134 93/127/132
s 10
f 54/73/127 53/107/135 71/116/136 70/48/137
s 4
f 53/107/138 52/45/130 72/49/139 71/116/140
s 1
f 64/74/60 63/112/141 69/173/142 68/46/94
s 10
f 63/176/143 62/47/123 70/48/137 69/115/144
s 4
f 66/80/92 65/113/145 77/170/146 76/81/147
f 65/175/145 72/49/139 78/52/148 77/119/146
s 13
f 74/51/149 73/117/150 109/169/151 108/83/152
s 14
f 73/172/153 80/84/154 110/60/155 109/135/156
s 4
f 76/81/147 75/118/157 87/124/158 86/50/83
s 13
f 75/118/159 74/51/149 88/54/160 87/124/161
s 14
f 80/84/154 79/120/162 91/126/163 90/85/164
s 4
f 79/120/165 78/52/148 92/53/133 91/126/166
s 15
f 82/56/167 81/121/168 113/185/169 112/88/170
s 13
f 81/188/171 88/54/160 114/62/172 113/137/173
s 4
f 84/82/81 83/122/174 103/132/175 102/55/112
s 15
f 83/122/176 82/56/167 104/59/177 103/132/178
s 14
f 90/85/164 89/125/179 121/161/180 120/61/181
s 16
f 89/164/182 96/86/183 122/67/184 121/141/185
f 96/86/183 95/128/186 99/130/187 98/87/188
s 4
f 95/128/189 94/57/134 100/58/111 99/130/190
s 16
f 98/87/188 97/129/191 127/177/192 126/68/193
s 15
f 97/180/194 104/59/177 128/64/195 127/144/196
s 17
f 106/63/197 105/133/198 119/197/199 118/75/200
s 14
f 105/199/201 110/60/155 120/61/181 119/140/202
s 13
f 108/83/152 107/134/203 115/206/204 114/62/172
s 17
f 107/207/205 106/63/197 116/65/206 115/138/207
s 15
f 112/88/170 111/136/208 123/193/209 128/64/195
s 17
f 111/195/210 116/65/206 124/66/211 123/142/212
f 118/75/200 117/139/213 125/201/214 124/66/211
s 16
f 117/203/215 122/67/184 126/68/193 125/143/216
s 3
f 20/34/65 26/69/68 42/38/86 34/37/76
s 7
f 36/70/100 40/71/105 56/43/115 48/42/101
s 10
f 50/72/122 54/73/127 70/48/137 62/47/123
s 1
f 64/74/60 68/46/94 28/36/70 18/33/57
s 17
f 116/65/206 106/63/197 118/75/200 124/66/211
s 2
f 60/41/63 22/76/62 32/77/74 46/78/98
s 4
f 30/79/82 66/80/92 76/81/147 86/50/83
f 72/49/139 52/45/130 92/53/133 78/52/148
f 58/44/117 38/40/108 100/58/111 94/57/134
f 44/39/88 24/35/78 84/82/81 102/55/112
s 13
f 88/54/160 74/51/149 108/83/152 114/62/172
s 14
f 80/84/154 90/85/164 120/61/181 110/60/155
s 16
f 96/86/183 98/87/188 126/68/193 122/67/184
s 15
f 104/59/177 82/56/167 112/88/170 128/64/195
s 2
f 21/91/72 22/76/62 17/223/61 129/224/217
s 1
f 17/89/58 18/33/57 19/192/69 129/145/218
s 3
f 19/90/66 20/34/65 21/216/75 129/215/219
s 4
f 29/95/90 30/79/82 23/191/79 130/190/220
f 23/92/79 24/35/78 25/93/87 130/146/220
s 3
f 25/93/84 26/69/68 27/189/221 130/146/222
s 1
f 27/94/223 28/36/70 29/95/93 130/190/224
s 7
f 35/98/103 36/70/100 31/221/99 131/222/225
s 2
f 31/96/96 32/77/74 33/213/73 131/147/226
s 3
f 33/97/77 34/37/76 35/184/106 131/214/227
s 4
f 43/102/89 44/39/88 37/183/109 132/182/228
f 37/99/109 38/40/108 39/100/116 132/148/228
s 7
f 39/100/113 40/71/105 41/181/229 132/148/230
s 3
f 41/101/231 42/38/86 43/102/85 132/182/232
s 10
f 49/105/125 50/72/122 45/211/121 133/212/233
s 2
f 45/103/119 46/78/98 47/219/97 133/149/234
s 7
f 47/104/102 48/42/101 49/168/128 133/220/235
s 4
f 57/109/118 58/44/117 51/167/131 134/166/236
f 51/106/131 52/45/130 53/107/138 134/150/236
s 10
f 53/107/135 54/73/127 55/165/237 134/150/238
s 7
f 55/108/239 56/43/115 57/109/114 134/166/240
s 1
f 63/112/141 64/74/60 59/217/59 135/218/241
s 2
f 59/110/64 60/41/63 61/209/120 135/151/242
s 10
f 61/111/124 62/47/123 63/176/143 135/210/243
s 4
f 71/116/140 72/49/139 65/175/145 136/174/244
f 65/113/145 66/80/92 67/114/91 136/152/244
s 1
f 67/114/95 68/46/94 69/173/245 136/152/246
s 10
f 69/115/247 70/48/137 71/116/136 136/174/248
s 14
f 79/120/162 80/84/154 73/172/153 137/171/249
s 13
f 73/117/150 74/51/149 75/118/159 137/153/250
s 4
f 75/118/157 76/81/147 77/170/146 137/153/251
f 77/119/146 78/52/148 79/120/165 137/171/251
s 13
f 87/124/161 88/54/160 81/188/171 138/187/252
s 15
f 81/121/168 82/56/167 83/122/176 138/154/253
s 4
f 83/122/174 84/82/81 85/186/80 138/154/254
f 85/123/80 86/50/83 87/124/158 138/187/254
s 16
f 95/128/186 96/86/183 89/164/182 139/163/255
s 14
f 89/125/179 90/85/164 91/126/163 139/155/256
s 4
f 91/126/166 92/53/133 93/162/132 139/155/257
f 93/127/132 94/57/134 95/128/189 139/163/257
s 15
f 103/132/178 104/59/177 97/180/194 140/179/258
s 16
f 97/129/191 98/87/188 99/130/187 140/156/259
s 4
f 99/130/190 100/58/111 101/178/110 140/156/260
f 101/131/110 102/55/112 103/132/175 140/179/260
s 14
f 109/135/156 110/60/155 105/199/201 141/200/261
s 17
f 105/133/198 106/63/197 107/207/205 141/157/262
s 13
f 107/134/203 108/83/152 109/169/151 141/208/263
s 17
f 115/138/207 116/65/206 111/195/210 142/196/264
s 15
f 111/136/208 112/88/170 113/185/169 142/158/265
s 13
f 113/137/173 114/62/172 115/206/204 142/205/266
s 16
f 121/141/185 122/67/184 117/203/215 143/204/267
s 17
f 117/139/213 118/75/200 119/197/199 143/159/268
s 14
f 119/140/202 120/61/181 121/161/180 143/198/269
s 15
f 127/144/196 128/64/195 123/193/209 144/194/270
s 17
f 123/142/212 124/66/211 125/201/214 144/160/271
s 16
f 125/143/216 126/68/193 127/177/192 144/202/272
