# This file uses centimeters as units for non-parametric coordinates.

mtllib doos binnenkant.mtl
g default
v -3.157585 3.040923 -2.283741
v -2.269066 3.040923 -2.283741
v -3.157585 3.189010 -2.283741
v -2.269066 3.189010 -2.283741
v -3.157585 3.189010 -2.896515
v -2.269066 3.189010 -2.896515
v -3.157585 3.040923 -2.896515
v -2.269066 3.040923 -2.896515
v -3.120561 3.189010 -2.312553
v -2.306091 3.189010 -2.312553
v -2.306091 3.189010 -2.867703
v -3.120561 3.189010 -2.867703
v -3.120561 3.080132 -2.312553
v -2.306091 3.080132 -2.312553
v -2.306091 3.080132 -2.867704
v -3.120561 3.080132 -2.867704
vt 0.445485 0.116730
vt 0.120561 0.110214
vt 0.446571 0.062575
vt 0.066407 0.109128
vt 0.439906 0.394970
vt 0.440992 0.340816
vt 0.061913 0.333215
vt 0.116068 0.334301
vt 0.070995 0.786489
vt 0.110298 0.524544
vt 0.474311 0.562460
vt 0.435008 0.824405
vt 0.113850 0.785907
vt 0.110880 0.567399
vt 0.431457 0.563042
vt 0.434426 0.781550
vt 0.492008 0.792110
vt 0.100013 0.840300
vt 0.445293 0.508649
vt 0.053299 0.556839
vt 0.114432 0.828761
vt 0.477281 0.780968
vt 0.430874 0.520188
vt 0.068026 0.567981
vt 0.449736 0.835547
vt 0.056576 0.798027
vt 0.488730 0.550921
vt 0.095571 0.513402
vt 0.114982 0.388455
vt 0.495146 0.341902
vt 0.121647 0.056060
vt 0.499639 0.117816
vn 0.000000 0.000000 1.000000
vn 0.000000 0.000000 1.000000
vn 0.000000 0.000000 1.000000
vn 0.000000 0.000000 1.000000
vn 0.000000 1.000000 0.000000
vn 0.000000 1.000000 0.000000
vn 0.000000 1.000000 0.000000
vn 0.000000 1.000000 0.000000
vn -0.000000 -0.000000 -1.000000
vn -0.000000 -0.000000 -1.000000
vn -0.000000 -0.000000 -1.000000
vn -0.000000 -0.000000 -1.000000
vn 0.000000 -1.000000 0.000000
vn 0.000000 -1.000000 0.000000
vn 0.000000 -1.000000 0.000000
vn 0.000000 -1.000000 0.000000
vn -1.000000 0.000001 0.000000
vn -1.000000 0.000001 0.000000
vn -1.000000 0.000001 0.000000
vn -1.000000 0.000001 0.000000
vn 1.000000 0.000000 0.000000
vn 1.000000 0.000000 0.000000
vn 1.000000 0.000000 0.000000
vn 1.000000 0.000000 0.000000
vn -0.000000 1.000000 -0.000005
vn -0.000000 1.000000 -0.000005
vn -0.000000 1.000000 -0.000005
vn -0.000000 1.000000 -0.000005
vn -0.000008 1.000000 0.000000
vn -0.000008 1.000000 0.000000
vn -0.000008 1.000000 0.000000
vn -0.000008 1.000000 0.000000
vn -0.000000 1.000000 0.000005
vn -0.000000 1.000000 0.000005
vn -0.000000 1.000000 0.000005
vn -0.000000 1.000000 0.000005
vn 0.000000 1.000000 0.000000
vn 0.000000 1.000000 0.000000
vn 0.000000 1.000000 0.000000
vn 0.000000 1.000000 0.000000
vn 0.000000 0.000000 -1.000000
vn 0.000000 0.000000 -1.000000
vn 0.000000 0.000000 -1.000000
vn 0.000000 0.000000 -1.000000
vn -1.000000 -0.000000 0.000000
vn -1.000000 -0.000000 0.000000
vn -1.000000 -0.000000 0.000000
vn -1.000000 -0.000000 0.000000
vn 0.000000 -0.000003 1.000000
vn 0.000000 -0.000003 1.000000
vn 0.000000 -0.000003 1.000000
vn 0.000000 -0.000003 1.000000
vn 1.000000 -0.000002 0.000000
vn 1.000000 -0.000002 0.000000
vn 1.000000 -0.000002 0.000000
vn 1.000000 -0.000002 0.000000
s off
g box_inside midden_scene
usemtl initialShadingGroup
f 1/1/1 2/2/2 4/31/3 3/3/4
f 13/14/5 14/15/6 15/16/7 16/13/8
f 5/5/9 6/29/10 8/8/11 7/6/12
f 7/6/13 8/8/14 2/2/15 1/1/16
f 7/6/17 1/1/18 3/32/19 5/30/20
f 6/7/21 4/4/22 2/2/23 8/8/24
f 3/28/25 4/19/26 10/23/27 9/10/28
f 4/27/29 6/17/30 11/22/31 10/11/32
f 6/25/33 5/18/34 12/21/35 11/12/36
f 5/26/37 3/20/38 9/24/39 12/9/40
f 9/10/41 10/23/42 14/15/43 13/14/44
f 10/11/45 11/22/46 15/16/47 14/15/48
f 11/12/49 12/21/50 16/13/51 15/16/52
f 12/9/53 9/24/54 13/14/55 16/13/56
